<svg xmlns="http://www.w3.org/2000/svg" xmlns:xlink="http://www.w3.org/1999/xlink" width="500" zoomAndPan="magnify" viewBox="0 0 375 374.999991" height="500" preserveAspectRatio="xMidYMid meet" version="1.0"><defs><g/><clipPath id="88ab855bd4"><path d="M 43.179688 142.929688 L 132.429688 142.929688 L 132.429688 232.179688 L 43.179688 232.179688 Z M 43.179688 142.929688 " clip-rule="nonzero"/></clipPath></defs><rect x="-37.5" width="450" fill="#ffffff" y="-37.499999" height="449.999989" fill-opacity="1"/><rect x="-37.5" width="450" fill="#060c1c" y="-37.499999" height="449.999989" fill-opacity="1"/><g clip-path="url(#88ab855bd4)"><path fill="#f8fafc" d="M 125.613281 172.535156 L 123.46875 170.953125 L 112.441406 162.808594 L 104.289062 151.777344 L 102.707031 149.636719 L 97.753906 142.929688 L 77.746094 142.929688 L 72.789062 149.636719 L 71.207031 151.777344 L 63.058594 162.808594 L 52.027344 170.953125 L 49.886719 172.542969 L 43.179688 177.496094 L 43.179688 197.5 L 49.886719 202.460938 L 52.027344 204.042969 L 63.058594 212.1875 L 71.207031 223.21875 L 72.796875 225.359375 L 77.746094 232.070312 L 97.757812 232.070312 L 102.714844 225.359375 L 104.296875 223.21875 L 112.445312 212.1875 L 123.476562 204.042969 L 125.617188 202.453125 L 132.328125 197.5 L 132.328125 177.492188 L 125.617188 172.535156 Z M 124.734375 189.023438 C 124.375 189.378906 124.175781 189.582031 123.816406 189.9375 L 113.371094 189.9375 L 100.0625 199.675781 L 100.0625 199.8125 L 99.921875 199.8125 L 90.1875 213.128906 L 90.1875 223.566406 L 89.269531 224.484375 L 86.222656 224.484375 C 85.863281 224.125 85.664062 223.925781 85.308594 223.566406 L 85.308594 213.121094 L 75.574219 199.8125 L 75.4375 199.8125 L 75.4375 199.671875 L 62.121094 189.9375 L 51.675781 189.9375 C 51.316406 189.578125 51.121094 189.378906 50.761719 189.019531 L 50.761719 185.976562 C 51.121094 185.617188 51.320312 185.417969 51.675781 185.058594 L 62.125 185.058594 L 75.4375 175.320312 L 75.4375 175.183594 L 75.574219 175.183594 L 85.308594 161.867188 L 85.308594 151.429688 C 85.667969 151.070312 85.867188 150.871094 86.222656 150.511719 L 89.269531 150.511719 C 89.628906 150.871094 89.828125 151.070312 90.1875 151.429688 L 90.1875 161.875 L 99.921875 175.1875 L 100.0625 175.1875 L 100.0625 175.324219 L 113.375 185.058594 L 123.816406 185.058594 L 124.734375 185.976562 Z M 124.734375 189.023438 " fill-opacity="1" fill-rule="nonzero"/></g><g fill="#22c0d4" fill-opacity="1"><g transform="translate(142.891313, 196.499987)"><g><path d="M 11.125 0.5 C 9.226562 0.5 7.550781 0.15625 6.09375 -0.53125 C 4.644531 -1.21875 3.507812 -2.203125 2.6875 -3.484375 C 1.875 -4.773438 1.46875 -6.3125 1.46875 -8.09375 L 6.921875 -8.09375 C 6.921875 -6.882812 7.34375 -5.988281 8.1875 -5.40625 C 9.03125 -4.820312 10 -4.53125 11.09375 -4.53125 C 11.78125 -4.53125 12.425781 -4.640625 13.03125 -4.859375 C 13.644531 -5.085938 14.144531 -5.421875 14.53125 -5.859375 C 14.925781 -6.304688 15.125 -6.835938 15.125 -7.453125 C 15.125 -8.097656 14.894531 -8.601562 14.4375 -8.96875 C 13.988281 -9.34375 13.382812 -9.644531 12.625 -9.875 C 11.863281 -10.113281 11.03125 -10.34375 10.125 -10.5625 C 9.195312 -10.769531 8.242188 -11.03125 7.265625 -11.34375 C 6.296875 -11.65625 5.394531 -12.066406 4.5625 -12.578125 C 3.726562 -13.085938 3.0625 -13.773438 2.5625 -14.640625 C 2.0625 -15.515625 1.8125 -16.613281 1.8125 -17.9375 C 1.8125 -20.34375 2.625 -22.191406 4.25 -23.484375 C 5.882812 -24.785156 8.09375 -25.4375 10.875 -25.4375 C 13.726562 -25.4375 15.941406 -24.71875 17.515625 -23.28125 C 19.085938 -21.84375 19.875 -19.882812 19.875 -17.40625 L 14.515625 -17.40625 C 14.515625 -18.476562 14.132812 -19.269531 13.375 -19.78125 C 12.613281 -20.289062 11.734375 -20.546875 10.734375 -20.546875 C 9.859375 -20.546875 9.050781 -20.351562 8.3125 -19.96875 C 7.570312 -19.59375 7.203125 -19 7.203125 -18.1875 C 7.203125 -17.59375 7.421875 -17.125 7.859375 -16.78125 C 8.304688 -16.4375 8.890625 -16.148438 9.609375 -15.921875 C 10.335938 -15.703125 11.140625 -15.484375 12.015625 -15.265625 C 12.972656 -15.023438 13.945312 -14.742188 14.9375 -14.421875 C 15.9375 -14.109375 16.863281 -13.675781 17.71875 -13.125 C 18.582031 -12.582031 19.28125 -11.859375 19.8125 -10.953125 C 20.351562 -10.046875 20.625 -8.90625 20.625 -7.53125 C 20.625 -5.71875 20.1875 -4.21875 19.3125 -3.03125 C 18.445312 -1.84375 17.300781 -0.957031 15.875 -0.375 C 14.445312 0.207031 12.863281 0.5 11.125 0.5 Z M 11.125 0.5 "/></g></g></g><g fill="#22c0d4" fill-opacity="1"><g transform="translate(163.181434, 196.499987)"><g><path d="M 15.796875 -19.265625 L 21.375 -19.265625 L 12.953125 -0.25 C 12.191406 1.488281 11.414062 2.882812 10.625 3.9375 C 9.84375 5 8.953125 5.765625 7.953125 6.234375 C 6.953125 6.710938 5.726562 6.953125 4.28125 6.953125 L 2.140625 6.953125 L 2.140625 2.25 L 3.953125 2.25 C 4.785156 2.25 5.445312 2.148438 5.9375 1.953125 C 6.425781 1.765625 6.84375 1.414062 7.1875 0.90625 C 7.53125 0.394531 7.90625 -0.34375 8.3125 -1.3125 L 8.390625 -1.46875 L 0.21875 -19.265625 L 5.890625 -19.265625 L 11.015625 -7.421875 Z M 15.796875 -19.265625 "/></g></g></g><g fill="#22c0d4" fill-opacity="1"><g transform="translate(182.86534, 196.499987)"><g><path d="M 13.484375 -19.734375 C 15.671875 -19.734375 17.398438 -19 18.671875 -17.53125 C 19.941406 -16.070312 20.578125 -14.117188 20.578125 -11.671875 L 20.578125 0 L 15.375 0 L 15.375 -10.84375 C 15.375 -13.71875 14.253906 -15.15625 12.015625 -15.15625 C 10.691406 -15.15625 9.640625 -14.703125 8.859375 -13.796875 C 8.085938 -12.898438 7.703125 -11.675781 7.703125 -10.125 L 7.703125 0 L 2.5 0 L 2.5 -19.265625 L 6.0625 -19.265625 L 7.09375 -16.875 C 7.8125 -17.75 8.726562 -18.441406 9.84375 -18.953125 C 10.957031 -19.472656 12.171875 -19.734375 13.484375 -19.734375 Z M 13.484375 -19.734375 "/></g></g></g><g fill="#22c0d4" fill-opacity="1"><g transform="translate(203.939988, 196.499987)"><g><path d="M 11.453125 0.53125 C 9.523438 0.53125 7.785156 0.0820312 6.234375 -0.8125 C 4.691406 -1.71875 3.472656 -2.941406 2.578125 -4.484375 C 1.691406 -6.035156 1.25 -7.773438 1.25 -9.703125 C 1.25 -11.628906 1.691406 -13.351562 2.578125 -14.875 C 3.472656 -16.394531 4.691406 -17.59375 6.234375 -18.46875 C 7.785156 -19.351562 9.535156 -19.796875 11.484375 -19.796875 C 13.148438 -19.796875 14.664062 -19.46875 16.03125 -18.8125 C 17.394531 -18.164062 18.535156 -17.242188 19.453125 -16.046875 C 20.367188 -14.859375 20.984375 -13.484375 21.296875 -11.921875 L 16.125 -11.921875 C 15.695312 -12.867188 15.070312 -13.601562 14.25 -14.125 C 13.425781 -14.644531 12.492188 -14.90625 11.453125 -14.90625 C 10.523438 -14.90625 9.6875 -14.671875 8.9375 -14.203125 C 8.1875 -13.742188 7.597656 -13.125 7.171875 -12.34375 C 6.742188 -11.5625 6.53125 -10.671875 6.53125 -9.671875 C 6.53125 -8.671875 6.742188 -7.769531 7.171875 -6.96875 C 7.597656 -6.175781 8.1875 -5.539062 8.9375 -5.0625 C 9.6875 -4.59375 10.523438 -4.359375 11.453125 -4.359375 C 12.523438 -4.359375 13.457031 -4.632812 14.25 -5.1875 C 15.050781 -5.75 15.675781 -6.550781 16.125 -7.59375 L 21.375 -7.59375 C 21.0625 -5.976562 20.441406 -4.554688 19.515625 -3.328125 C 18.585938 -2.109375 17.429688 -1.160156 16.046875 -0.484375 C 14.671875 0.191406 13.140625 0.53125 11.453125 0.53125 Z M 11.453125 0.53125 "/></g></g></g><g fill="#22c0d4" fill-opacity="1"><g transform="translate(224.44408, 196.499987)"><g><path d="M 11.125 0.5 C 9.226562 0.5 7.550781 0.15625 6.09375 -0.53125 C 4.644531 -1.21875 3.507812 -2.203125 2.6875 -3.484375 C 1.875 -4.773438 1.46875 -6.3125 1.46875 -8.09375 L 6.921875 -8.09375 C 6.921875 -6.882812 7.34375 -5.988281 8.1875 -5.40625 C 9.03125 -4.820312 10 -4.53125 11.09375 -4.53125 C 11.78125 -4.53125 12.425781 -4.640625 13.03125 -4.859375 C 13.644531 -5.085938 14.144531 -5.421875 14.53125 -5.859375 C 14.925781 -6.304688 15.125 -6.835938 15.125 -7.453125 C 15.125 -8.097656 14.894531 -8.601562 14.4375 -8.96875 C 13.988281 -9.34375 13.382812 -9.644531 12.625 -9.875 C 11.863281 -10.113281 11.03125 -10.34375 10.125 -10.5625 C 9.195312 -10.769531 8.242188 -11.03125 7.265625 -11.34375 C 6.296875 -11.65625 5.394531 -12.066406 4.5625 -12.578125 C 3.726562 -13.085938 3.0625 -13.773438 2.5625 -14.640625 C 2.0625 -15.515625 1.8125 -16.613281 1.8125 -17.9375 C 1.8125 -20.34375 2.625 -22.191406 4.25 -23.484375 C 5.882812 -24.785156 8.09375 -25.4375 10.875 -25.4375 C 13.726562 -25.4375 15.941406 -24.71875 17.515625 -23.28125 C 19.085938 -21.84375 19.875 -19.882812 19.875 -17.40625 L 14.515625 -17.40625 C 14.515625 -18.476562 14.132812 -19.269531 13.375 -19.78125 C 12.613281 -20.289062 11.734375 -20.546875 10.734375 -20.546875 C 9.859375 -20.546875 9.050781 -20.351562 8.3125 -19.96875 C 7.570312 -19.59375 7.203125 -19 7.203125 -18.1875 C 7.203125 -17.59375 7.421875 -17.125 7.859375 -16.78125 C 8.304688 -16.4375 8.890625 -16.148438 9.609375 -15.921875 C 10.335938 -15.703125 11.140625 -15.484375 12.015625 -15.265625 C 12.972656 -15.023438 13.945312 -14.742188 14.9375 -14.421875 C 15.9375 -14.109375 16.863281 -13.675781 17.71875 -13.125 C 18.582031 -12.582031 19.28125 -11.859375 19.8125 -10.953125 C 20.351562 -10.046875 20.625 -8.90625 20.625 -7.53125 C 20.625 -5.71875 20.1875 -4.21875 19.3125 -3.03125 C 18.445312 -1.84375 17.300781 -0.957031 15.875 -0.375 C 14.445312 0.207031 12.863281 0.5 11.125 0.5 Z M 11.125 0.5 "/></g></g></g><g fill="#22c0d4" fill-opacity="1"><g transform="translate(244.734201, 196.499987)"><g><path d="M 13.015625 -19.796875 C 14.941406 -19.796875 16.664062 -19.351562 18.1875 -18.46875 C 19.707031 -17.59375 20.90625 -16.390625 21.78125 -14.859375 C 22.664062 -13.328125 23.109375 -11.582031 23.109375 -9.625 C 23.109375 -7.675781 22.664062 -5.9375 21.78125 -4.40625 C 20.90625 -2.875 19.707031 -1.660156 18.1875 -0.765625 C 16.664062 0.128906 14.941406 0.578125 13.015625 0.578125 C 12.015625 0.578125 11.0625 0.429688 10.15625 0.140625 C 9.257812 -0.140625 8.441406 -0.53125 7.703125 -1.03125 L 7.703125 6.953125 L 2.5 6.953125 L 2.5 -19.265625 L 5.953125 -19.265625 L 6.84375 -17.515625 C 7.65625 -18.222656 8.582031 -18.78125 9.625 -19.1875 C 10.675781 -19.59375 11.804688 -19.796875 13.015625 -19.796875 Z M 12.59375 -4.359375 C 13.59375 -4.359375 14.488281 -4.585938 15.28125 -5.046875 C 16.082031 -5.515625 16.707031 -6.144531 17.15625 -6.9375 C 17.613281 -7.738281 17.84375 -8.632812 17.84375 -9.625 C 17.84375 -10.625 17.613281 -11.519531 17.15625 -12.3125 C 16.707031 -13.113281 16.082031 -13.742188 15.28125 -14.203125 C 14.488281 -14.671875 13.59375 -14.90625 12.59375 -14.90625 C 11.570312 -14.90625 10.664062 -14.671875 9.875 -14.203125 C 9.09375 -13.742188 8.472656 -13.113281 8.015625 -12.3125 C 7.566406 -11.519531 7.34375 -10.625 7.34375 -9.625 C 7.34375 -8.632812 7.566406 -7.738281 8.015625 -6.9375 C 8.472656 -6.144531 9.09375 -5.515625 9.875 -5.046875 C 10.664062 -4.585938 11.570312 -4.359375 12.59375 -4.359375 Z M 12.59375 -4.359375 "/></g></g></g><g fill="#22c0d4" fill-opacity="1"><g transform="translate(267.270912, 196.499987)"><g><path d="M 13.515625 -19.734375 C 15.703125 -19.734375 17.425781 -19.003906 18.6875 -17.546875 C 19.945312 -16.097656 20.578125 -14.148438 20.578125 -11.703125 L 20.578125 0 L 15.375 0 L 15.375 -10.84375 C 15.375 -12.269531 15.113281 -13.34375 14.59375 -14.0625 C 14.070312 -14.789062 13.210938 -15.15625 12.015625 -15.15625 C 10.734375 -15.15625 9.691406 -14.707031 8.890625 -13.8125 C 8.097656 -12.925781 7.703125 -11.695312 7.703125 -10.125 L 7.703125 0 L 2.5 0 L 2.5 -26.21875 L 7.703125 -26.21875 L 7.703125 -17.484375 C 8.441406 -18.171875 9.3125 -18.71875 10.3125 -19.125 C 11.3125 -19.53125 12.378906 -19.734375 13.515625 -19.734375 Z M 13.515625 -19.734375 "/></g></g></g><g fill="#22c0d4" fill-opacity="1"><g transform="translate(288.345561, 196.499987)"><g><path d="M 21.1875 -9.703125 C 21.1875 -9.203125 21.148438 -8.691406 21.078125 -8.171875 L 6.53125 -8.171875 C 6.738281 -6.859375 7.257812 -5.851562 8.09375 -5.15625 C 8.925781 -4.457031 9.972656 -4.109375 11.234375 -4.109375 C 12.140625 -4.109375 12.945312 -4.300781 13.65625 -4.6875 C 14.375 -5.082031 14.921875 -5.625 15.296875 -6.3125 L 20.796875 -6.3125 C 20.085938 -4.21875 18.875 -2.550781 17.15625 -1.3125 C 15.445312 -0.0820312 13.472656 0.53125 11.234375 0.53125 C 9.335938 0.53125 7.632812 0.0859375 6.125 -0.796875 C 4.613281 -1.691406 3.421875 -2.90625 2.546875 -4.4375 C 1.679688 -5.96875 1.25 -7.695312 1.25 -9.625 C 1.25 -11.550781 1.679688 -13.28125 2.546875 -14.8125 C 3.421875 -16.351562 4.613281 -17.566406 6.125 -18.453125 C 7.632812 -19.347656 9.335938 -19.796875 11.234375 -19.796875 C 13.210938 -19.796875 14.945312 -19.335938 16.4375 -18.421875 C 17.9375 -17.503906 19.101562 -16.285156 19.9375 -14.765625 C 20.769531 -13.242188 21.1875 -11.554688 21.1875 -9.703125 Z M 11.234375 -15.375 C 10.066406 -15.375 9.082031 -15.050781 8.28125 -14.40625 C 7.488281 -13.769531 6.953125 -12.878906 6.671875 -11.734375 L 15.984375 -11.734375 C 15.222656 -14.160156 13.640625 -15.375 11.234375 -15.375 Z M 11.234375 -15.375 "/></g></g></g><g fill="#22c0d4" fill-opacity="1"><g transform="translate(308.956632, 196.499987)"><g><path d="M 12.34375 -19.375 L 14.0625 -19.375 L 14.0625 -14.453125 L 11.8125 -14.453125 C 10.332031 -14.453125 9.273438 -14.101562 8.640625 -13.40625 C 8.015625 -12.71875 7.703125 -11.59375 7.703125 -10.03125 L 7.703125 0 L 2.5 0 L 2.5 -19.265625 L 5.84375 -19.265625 L 6.78125 -16.90625 C 8.082031 -18.550781 9.9375 -19.375 12.34375 -19.375 Z M 12.34375 -19.375 "/></g></g></g><g fill="#22c0d4" fill-opacity="1"><g transform="translate(321.68681, 196.499987)"><g><path d="M 21.1875 -9.703125 C 21.1875 -9.203125 21.148438 -8.691406 21.078125 -8.171875 L 6.53125 -8.171875 C 6.738281 -6.859375 7.257812 -5.851562 8.09375 -5.15625 C 8.925781 -4.457031 9.972656 -4.109375 11.234375 -4.109375 C 12.140625 -4.109375 12.945312 -4.300781 13.65625 -4.6875 C 14.375 -5.082031 14.921875 -5.625 15.296875 -6.3125 L 20.796875 -6.3125 C 20.085938 -4.21875 18.875 -2.550781 17.15625 -1.3125 C 15.445312 -0.0820312 13.472656 0.53125 11.234375 0.53125 C 9.335938 0.53125 7.632812 0.0859375 6.125 -0.796875 C 4.613281 -1.691406 3.421875 -2.90625 2.546875 -4.4375 C 1.679688 -5.96875 1.25 -7.695312 1.25 -9.625 C 1.25 -11.550781 1.679688 -13.28125 2.546875 -14.8125 C 3.421875 -16.351562 4.613281 -17.566406 6.125 -18.453125 C 7.632812 -19.347656 9.335938 -19.796875 11.234375 -19.796875 C 13.210938 -19.796875 14.945312 -19.335938 16.4375 -18.421875 C 17.9375 -17.503906 19.101562 -16.285156 19.9375 -14.765625 C 20.769531 -13.242188 21.1875 -11.554688 21.1875 -9.703125 Z M 11.234375 -15.375 C 10.066406 -15.375 9.082031 -15.050781 8.28125 -14.40625 C 7.488281 -13.769531 6.953125 -12.878906 6.671875 -11.734375 L 15.984375 -11.734375 C 15.222656 -14.160156 13.640625 -15.375 11.234375 -15.375 Z M 11.234375 -15.375 "/></g></g></g><g fill="#244887" fill-opacity="1"><g transform="translate(192.705841, 231.892118)"><g><path d="M 7.703125 0.296875 C 6.335938 0.296875 5.019531 0.113281 3.75 -0.25 C 2.476562 -0.625 1.457031 -1.109375 0.6875 -1.703125 L 2.046875 -4.703125 C 2.785156 -4.160156 3.660156 -3.722656 4.671875 -3.390625 C 5.691406 -3.066406 6.710938 -2.90625 7.734375 -2.90625 C 8.859375 -2.90625 9.691406 -3.070312 10.234375 -3.40625 C 10.773438 -3.738281 11.046875 -4.1875 11.046875 -4.75 C 11.046875 -5.15625 10.882812 -5.492188 10.5625 -5.765625 C 10.25 -6.035156 9.84375 -6.253906 9.34375 -6.421875 C 8.84375 -6.585938 8.164062 -6.769531 7.3125 -6.96875 C 6 -7.28125 4.921875 -7.585938 4.078125 -7.890625 C 3.242188 -8.203125 2.523438 -8.703125 1.921875 -9.390625 C 1.328125 -10.085938 1.03125 -11.007812 1.03125 -12.15625 C 1.03125 -13.15625 1.300781 -14.0625 1.84375 -14.875 C 2.382812 -15.6875 3.203125 -16.328125 4.296875 -16.796875 C 5.390625 -17.273438 6.722656 -17.515625 8.296875 -17.515625 C 9.390625 -17.515625 10.460938 -17.382812 11.515625 -17.125 C 12.566406 -16.863281 13.484375 -16.488281 14.265625 -16 L 13.046875 -12.96875 C 11.453125 -13.875 9.859375 -14.328125 8.265625 -14.328125 C 7.148438 -14.328125 6.328125 -14.144531 5.796875 -13.78125 C 5.265625 -13.414062 5 -12.941406 5 -12.359375 C 5 -11.765625 5.304688 -11.320312 5.921875 -11.03125 C 6.535156 -10.75 7.472656 -10.46875 8.734375 -10.1875 C 10.046875 -9.875 11.117188 -9.5625 11.953125 -9.25 C 12.796875 -8.9375 13.515625 -8.441406 14.109375 -7.765625 C 14.710938 -7.097656 15.015625 -6.191406 15.015625 -5.046875 C 15.015625 -4.054688 14.738281 -3.15625 14.1875 -2.34375 C 13.632812 -1.53125 12.804688 -0.882812 11.703125 -0.40625 C 10.609375 0.0625 9.273438 0.296875 7.703125 0.296875 Z M 7.703125 0.296875 "/></g></g></g><g fill="#244887" fill-opacity="1"><g transform="translate(210.277913, 231.892118)"><g><path d="M 10.390625 0.296875 C 8.597656 0.296875 6.984375 -0.0859375 5.546875 -0.859375 C 4.109375 -1.628906 2.984375 -2.691406 2.171875 -4.046875 C 1.359375 -5.398438 0.953125 -6.921875 0.953125 -8.609375 C 0.953125 -10.296875 1.359375 -11.816406 2.171875 -13.171875 C 2.984375 -14.523438 4.109375 -15.585938 5.546875 -16.359375 C 6.984375 -17.128906 8.597656 -17.515625 10.390625 -17.515625 C 12.171875 -17.515625 13.773438 -17.128906 15.203125 -16.359375 C 16.628906 -15.585938 17.753906 -14.523438 18.578125 -13.171875 C 19.398438 -11.816406 19.8125 -10.296875 19.8125 -8.609375 C 19.8125 -6.921875 19.398438 -5.398438 18.578125 -4.046875 C 17.753906 -2.691406 16.628906 -1.628906 15.203125 -0.859375 C 13.773438 -0.0859375 12.171875 0.296875 10.390625 0.296875 Z M 10.390625 -3.09375 C 11.398438 -3.09375 12.316406 -3.328125 13.140625 -3.796875 C 13.960938 -4.265625 14.609375 -4.914062 15.078125 -5.75 C 15.546875 -6.59375 15.78125 -7.546875 15.78125 -8.609375 C 15.78125 -9.679688 15.546875 -10.632812 15.078125 -11.46875 C 14.609375 -12.300781 13.960938 -12.953125 13.140625 -13.421875 C 12.316406 -13.890625 11.398438 -14.125 10.390625 -14.125 C 9.367188 -14.125 8.445312 -13.890625 7.625 -13.421875 C 6.800781 -12.953125 6.15625 -12.300781 5.6875 -11.46875 C 5.226562 -10.632812 5 -9.679688 5 -8.609375 C 5 -7.546875 5.226562 -6.59375 5.6875 -5.75 C 6.15625 -4.914062 6.800781 -4.265625 7.625 -3.796875 C 8.445312 -3.328125 9.367188 -3.09375 10.390625 -3.09375 Z M 10.390625 -3.09375 "/></g></g></g><g fill="#244887" fill-opacity="1"><g transform="translate(232.919533, 231.892118)"><g><path d="M 10.28125 0.296875 C 8.53125 0.296875 6.941406 -0.0820312 5.515625 -0.84375 C 4.097656 -1.613281 2.984375 -2.671875 2.171875 -4.015625 C 1.359375 -5.367188 0.953125 -6.898438 0.953125 -8.609375 C 0.953125 -10.316406 1.359375 -11.847656 2.171875 -13.203125 C 2.984375 -14.554688 4.097656 -15.613281 5.515625 -16.375 C 6.941406 -17.132812 8.539062 -17.515625 10.3125 -17.515625 C 11.800781 -17.515625 13.148438 -17.253906 14.359375 -16.734375 C 15.566406 -16.210938 16.582031 -15.457031 17.40625 -14.46875 L 14.84375 -12.109375 C 13.675781 -13.453125 12.234375 -14.125 10.515625 -14.125 C 9.441406 -14.125 8.484375 -13.890625 7.640625 -13.421875 C 6.804688 -12.953125 6.15625 -12.300781 5.6875 -11.46875 C 5.226562 -10.632812 5 -9.679688 5 -8.609375 C 5 -7.546875 5.226562 -6.59375 5.6875 -5.75 C 6.15625 -4.914062 6.804688 -4.265625 7.640625 -3.796875 C 8.484375 -3.328125 9.441406 -3.09375 10.515625 -3.09375 C 12.234375 -3.09375 13.675781 -3.773438 14.84375 -5.140625 L 17.40625 -2.78125 C 16.582031 -1.78125 15.5625 -1.015625 14.34375 -0.484375 C 13.132812 0.0351562 11.78125 0.296875 10.28125 0.296875 Z M 10.28125 0.296875 "/></g></g></g><g fill="#244887" fill-opacity="1"><g transform="translate(252.829508, 231.892118)"><g><path d="M 2.046875 -17.21875 L 6.03125 -17.21875 L 6.03125 0 L 2.046875 0 Z M 2.046875 -17.21875 "/></g></g></g><g fill="#244887" fill-opacity="1"><g transform="translate(262.772649, 231.892118)"><g><path d="M 13.390625 -3.6875 L 5.390625 -3.6875 L 3.859375 0 L -0.21875 0 L 7.453125 -17.21875 L 11.390625 -17.21875 L 19.09375 0 L 14.90625 0 Z M 12.125 -6.71875 L 9.40625 -13.3125 L 6.671875 -6.71875 Z M 12.125 -6.71875 "/></g></g></g><g fill="#244887" fill-opacity="1"><g transform="translate(283.494728, 231.892118)"><g><path d="M 2.046875 -17.21875 L 6.03125 -17.21875 L 6.03125 -3.25 L 14.671875 -3.25 L 14.671875 0 L 2.046875 0 Z M 2.046875 -17.21875 "/></g></g></g></svg>